<?xml version="1.0" encoding="UTF-8"?>
<svg version="1.1" xmlns="http://www.w3.org/2000/svg" width="600" height="600">
<path d="M0 0 C1.329104 0.0616333 1.329104 0.0616333 2.68505859 0.12451172 C29.85111004 1.54617601 57.81757576 7.6427426 77.22094727 28.18603516 C78.98320062 29.98287095 80.80958377 31.62982644 82.71484375 33.2734375 C116.15073753 62.33862621 129.89199166 94.2491278 133.55053711 138.50439453 C133.94884023 144.44725266 134.02040434 150.34931705 133.9375 156.30078125 C133.925196 157.3732309 133.925196 157.3732309 133.91264343 158.46734619 C133.8684564 161.99783832 133.79369869 165.52289411 133.66333008 169.05126953 C133.49481184 177.16342378 134.16025175 182.42526372 139 189 C139.76158705 190.13723792 140.5220735 191.27521397 141.28125 192.4140625 C142.37953125 194.00347656 142.37953125 194.00347656 143.5 195.625 C152.34017057 208.94113673 155.38294083 224.27825524 155.08984375 240.078125 C155.0694172 242.39713328 155.04924281 244.71614379 155.02929688 247.03515625 C154.98595754 250.63991134 154.9375823 254.24451037 154.88354492 257.84912109 C154.61214533 277.39256552 155.08968365 292.28893322 166 309 C166.39785706 309.61103577 166.79571411 310.22207153 167.20562744 310.85162354 C169.73868365 314.71239551 172.33137319 318.52996341 174.95028687 322.33288574 C177.28438685 325.72487888 179.59719707 329.13137986 181.9140625 332.53515625 C182.80628381 333.8439341 183.69853529 335.15269137 184.59082031 336.46142578 C197.23437889 355.02200245 207.97432825 373.56124838 215 395 C215.36822876 396.05562134 215.36822876 396.05562134 215.74389648 397.13256836 C218.29935029 404.89731267 219.50478195 412.90757788 220.78979492 420.95825195 C221.1863864 423.43055795 221.59936744 425.8997488 222.01367188 428.36914062 C225.13342784 447.36252059 225.13342784 447.36252059 224 453 C220.46686446 455.35542369 217.72964392 455.44581309 213.6328125 455.67578125 C212.1064822 455.7789664 210.58019813 455.88283697 209.05395508 455.98730469 C207.84879745 456.06579651 207.84879745 456.06579651 206.61929321 456.14587402 C140.94983463 460.53278315 83.74948676 484.99367708 27.67285156 518.41308594 C25.17312092 519.89721538 22.66392984 521.36309769 20.1484375 522.8203125 C6.18420135 530.91747733 -6.98287757 539.809934 -19.62109375 549.875 C-20.23549316 550.36315186 -20.84989258 550.85130371 -21.48291016 551.35424805 C-22.66479088 552.29625145 -23.84312473 553.24273011 -25.01708984 554.19458008 C-26.65280929 555.50118141 -28.31457264 556.75834076 -30 558 C-30.5470459 558.4232959 -31.0940918 558.8465918 -31.65771484 559.28271484 C-34.06808613 560.93884858 -36.17185359 562.02303567 -39.1328125 561.94067383 C-44.72129093 560.84803913 -49.72030173 558.46967089 -54.8125 556 C-67.5368208 550.07075146 -80.69938943 545.45540632 -94 541 C-94.90266602 540.69433105 -95.80533203 540.38866211 -96.73535156 540.07373047 C-111.81654297 535.06341698 -127.39594291 532.64290553 -143.04135132 530.13412476 C-148.32136002 529.28455155 -153.58775866 528.37406583 -158.8515625 527.4296875 C-176.76032444 524.24722088 -194.5984402 521.90392408 -212.72924805 520.38037109 C-232.91273744 518.63703677 -232.91273744 518.63703677 -239 513.4375 C-244.47615906 504.02535162 -244.7643633 490.09027857 -242.16015625 479.625 C-237.04632414 466.40135332 -227.58967715 456.91905147 -216.73046875 448.171875 C-210.01578719 442.67687747 -206.5818314 436.15529587 -202.72265625 428.484375 C-193.3389846 409.93953303 -180.66485137 395.88104799 -161 388 C-158.73604517 387.33045294 -156.46495738 386.68457122 -154.1875 386.0625 C-146.99100993 383.94740256 -143.36856194 381.00833559 -139.578125 374.59375 C-127.41470263 350.26690527 -134.36070059 326.65775666 -142.39941406 302.51049805 C-143.43705663 299.413011 -144.48666331 296.31990195 -145.54589844 293.22973633 C-152.15710119 273.93223237 -157.4180201 256.06400576 -157.3125 235.5 C-157.30926727 234.37165741 -157.30926727 234.37165741 -157.30596924 233.22052002 C-157.21434267 213.29518479 -154.20327864 196.93344095 -146.125 178.765625 C-145.81272461 178.06203857 -145.50044922 177.35845215 -145.17871094 176.63354492 C-144.58336354 175.30590771 -143.97809458 173.98264901 -143.36035156 172.6652832 C-138.33648296 161.6693997 -138.87112357 151.20103457 -139.34179688 139.27929688 C-139.51885385 130.3038701 -138.12468766 123.94827909 -134 116 C-133.47784912 114.96721924 -132.95569824 113.93443848 -132.41772461 112.87036133 C-130.21071435 108.5825025 -127.92707432 104.33769207 -125.640625 100.09179688 C-121.37831771 92.05784325 -118.36951177 84.55523863 -116.72119141 75.62084961 C-114.81267317 65.42498428 -111.14831327 56.95461196 -106 48 C-105.2575 46.65615234 -105.2575 46.65615234 -104.5 45.28515625 C-100.77388543 39.09260788 -95.80602005 35.19196178 -90 31 C-88.93839757 30.1828169 -87.87722026 29.36508132 -86.81640625 28.546875 C-78.21833344 22.11355249 -68.94462983 17.2347548 -59.3125 12.5625 C-58.70183685 12.26349792 -58.09117371 11.96449585 -57.46200562 11.65643311 C-38.79185817 2.56681723 -20.68534755 -0.96450872 0 0 Z M-43 35 C-42 37 -42 37 -42 37 Z M-44 38 C-44.32871094 38.92232422 -44.32871094 38.92232422 -44.6640625 39.86328125 C-45.13972656 41.07564453 -45.13972656 41.07564453 -45.625 42.3125 C-45.92664063 43.11300781 -46.22828125 43.91351563 -46.5390625 44.73828125 C-50.65056326 51.10341211 -60.87750311 51.93677709 -67.76953125 53.66210938 C-73.62846886 55.18511168 -78.73745278 56.97800363 -84 60 C-84.33 60.66 -84.66 61.32 -85 62 C-82.89573314 61.85561965 -80.79159231 61.70940226 -78.6875 61.5625 C-76.92986328 61.44068359 -76.92986328 61.44068359 -75.13671875 61.31640625 C-72.94848979 61.15945067 -70.76861162 60.97651967 -68.58583069 60.75502014 C-61.95014588 60.08525059 -55.40098422 59.85324642 -48.734375 59.8671875 C-47.17967499 59.86575241 -47.17967499 59.86575241 -45.59356689 59.86428833 C-43.41540465 59.86361253 -41.23724032 59.86542459 -39.05908203 59.86962891 C-35.7724135 59.87496362 -32.48588298 59.86967458 -29.19921875 59.86328125 C-18.09031037 59.86012925 -7.07004432 60.01584661 4 61 C0.15049038 55.75466151 -2.7503171 54.29941655 -9 53 C-13.38792863 52.45177081 -17.77300724 52.17510726 -22.1875 51.9375 C-24.47307845 51.80803089 -26.75827233 51.67154289 -29.04296875 51.52734375 C-30.04352295 51.47312256 -31.04407715 51.41890137 -32.07495117 51.36303711 C-35.28070357 50.96516099 -38.00837697 50.2144051 -41 49 C-42.14814997 46.70370006 -42.30769809 44.92301914 -42.5625 42.375 C-42.64628906 41.55773437 -42.73007813 40.74046875 -42.81640625 39.8984375 C-42.87699219 39.27195313 -42.93757813 38.64546875 -43 38 C-43.33 38 -43.66 38 -44 38 Z M-67.75 64.375 C-69.0275415 64.50100586 -70.30508301 64.62701172 -71.62133789 64.75683594 C-78.50358235 65.49008868 -85.24683323 66.47692041 -92 68 C-94.32723884 74.92393559 -96.63559404 81.85391014 -98.93066406 88.78857422 C-99.89612487 91.68804258 -100.87911014 94.58084027 -101.8671875 97.47265625 C-105.81814345 108.972738 -105.81814345 108.972738 -106 121 C-105.88011719 122.27359375 -105.76023438 123.5471875 -105.63671875 124.859375 C-105.05061206 130.46531513 -105.05061206 130.46531513 -104 136 C-100.20332941 138.53111372 -98.5487814 138.19916169 -94.15625 137.6953125 C-89.49942079 136.66942686 -85.16321212 134.90064097 -80.7980957 132.99609375 C-76.15632286 131.06860233 -73.00821964 130.63359557 -68 132 C-64.9453125 133.7421875 -64.9453125 133.7421875 -62.125 135.875 C-61.17882812 136.57367188 -60.23265625 137.27234375 -59.2578125 137.9921875 C-57 140 -57 140 -56 143 C-55.92948886 145.73865287 -55.90642235 148.45027588 -55.9375 151.1875 C-55.94201172 151.93708984 -55.94652344 152.68667969 -55.95117188 153.45898438 C-55.96293646 155.30602383 -55.98087135 157.15302213 -56 159 C-56.99 159.495 -56.99 159.495 -58 160 C-58.66 155.71 -59.32 151.42 -60 147 C-60.99 147 -61.98 147 -63 147 C-62.34 148.65 -61.68 150.3 -61 152 C-63.59704447 154.59704447 -65.41604218 154.43781054 -69 155 C-69.845625 155.37125 -70.69125 155.7425 -71.5625 156.125 C-74.55586258 157.19954041 -76.00243192 156.99918936 -79 156 C-82.0574321 154.13156927 -82.84279329 153.47162014 -84 150 C-86.86724686 150.57344937 -87.8614515 150.8614515 -90 153 C-89.67801034 156.09926819 -89.67801034 156.09926819 -89 159 C-92.05241054 157.89003253 -94.8274495 156.57088936 -97.625 154.9375 C-100.84176692 152.94270598 -100.84176692 152.94270598 -104 152 C-110.76133472 166.97152689 -108.90260298 182.87244766 -104 198 C-103.66484375 199.13050781 -103.3296875 200.26101562 -102.984375 201.42578125 C-101.33497655 206.78632622 -99.82017701 210.78463227 -96 215 C-95.25 217.3125 -95.25 217.3125 -95 219 C-95.66 219 -96.32 219 -97 219 C-96.4691943 224.07387805 -94.74427277 227.99796058 -92.25 232.375 C-91.85804443 233.0654541 -91.46608887 233.7559082 -91.06225586 234.46728516 C-82.02437008 249.83116946 -64.76674652 273.584177 -47.046875 278.6875 C-31.90991157 280.99848678 -12.66534053 271.6662843 0 264 C2.86524471 261.88508396 5.57311069 259.66990421 8.265625 257.33984375 C12.12160074 254.04023022 16.19537268 251.06029703 20.2734375 248.04296875 C21.17320312 247.36878906 22.07296875 246.69460938 23 246 C24.3303125 245.16275391 24.3303125 245.16275391 25.6875 244.30859375 C29.04923698 240.95253538 29.61668584 237.42275653 30.625 232.875 C31.03655342 231.16767735 31.44930406 229.46064283 31.86328125 227.75390625 C32.15259521 226.52631592 32.15259521 226.52631592 32.44775391 225.27392578 C33.4548209 221.12723171 34.73151195 217.07251428 36 213 C35.01 212.67 34.02 212.34 33 212 C33.39056888 206.95893651 35.6745678 205.0170512 39.3125 201.6875 C46.36425589 194.99296675 49.62975757 188.96029617 50.23828125 179.1640625 C50.55214161 166.10543726 48.59136159 153.77244911 46 141 C42.15628436 142.37078748 39.16166017 144.15529782 35.875 146.5625 C29.50650078 151.21789229 24.4381542 151.26075617 16.6640625 151.62109375 C12.16897575 152.08593748 9.2161309 152.7838691 6 156 C1.36551801 157.04931668 -1.82446266 157.43573012 -6 155 C-8.12298286 152.64955469 -8.98996425 151.03010726 -10 148 C-10.65226562 148.2165625 -11.30453125 148.433125 -11.9765625 148.65625 C-19.36995625 151.01166748 -19.36995625 151.01166748 -23.375 150.9375 C-26.13635754 150.73205802 -26.13635754 150.73205802 -28.1875 152.8125 C-28.785625 153.534375 -29.38375 154.25625 -30 155 C-30.48726563 155.4434375 -30.97453125 155.886875 -31.4765625 156.34375 C-33.29348413 158.31906993 -34.15003518 160.21904923 -35.1875 162.6875 C-35.70376953 163.89986328 -35.70376953 163.89986328 -36.23046875 165.13671875 C-36.48441406 165.75160156 -36.73835938 166.36648437 -37 167 C-38.485 166.505 -38.485 166.505 -40 166 C-40.06716893 159.86930875 -39.89693565 153.85295634 -39.3125 147.75 C-39.25900391 146.97398437 -39.20550781 146.19796875 -39.15039062 145.3984375 C-38.74903878 141.30813867 -38.33409232 139.41479368 -35.6875 136.12890625 C-29.29363448 131.06399824 -24.27352002 128.15862508 -16 129 C-15.35877197 129.16765869 -14.71754395 129.33531738 -14.05688477 129.50805664 C-11.79522972 130.04897473 -9.72576854 130.17561503 -7.40234375 130.24609375 C-6.52376709 130.27791748 -5.64519043 130.30974121 -4.73999023 130.3425293 C-3.35275757 130.38953979 -3.35275757 130.38953979 -1.9375 130.4375 C3.84276131 130.65594724 9.40450725 130.8894899 15.0625 132.1875 C25.77390897 134.40074065 34.81746794 130.1773851 44 125 C44.08132187 122.43685501 44.14064175 119.87631582 44.1875 117.3125 C44.21263672 116.59126953 44.23777344 115.87003906 44.26367188 115.12695312 C44.32683773 110.51584544 43.90361115 107.62297427 41 104 C39.18670074 102.35751593 39.18670074 102.35751593 37.0625 101.0625 C36.27230469 100.55460937 35.48210937 100.04671875 34.66796875 99.5234375 C31.804768 97.88852053 28.87618157 96.55064646 25.875 95.1875 C17.20814379 90.88153341 13.74174491 85.29764071 10.59130859 76.39770508 C8.40864275 69.5311858 8.40864275 69.5311858 3.67578125 64.49609375 C0.70742244 63.93259365 -1.98036502 63.9175782 -5 64 C-7.27118518 63.79553807 -9.54198582 63.58678332 -11.8125 63.375 C-30.48865948 62.2788407 -49.14188024 62.5392037 -67.75 64.375 Z M-18.875 143.1875 C-19.24625 143.785625 -19.6175 144.38375 -20 145 C-15.79271825 143.64356848 -15.79271825 143.64356848 -11.75 141.875 C-4.84554151 139.67812684 2.94272403 141.08938375 10 142 C9.13116551 139.72004698 9.13116551 139.72004698 6.375 138.89453125 C2.78738251 137.94364652 -0.29275847 137.69969487 -4 137.6875 C-5.175625 137.67074219 -6.35125 137.65398437 -7.5625 137.63671875 C-12.32223983 138.13973671 -15.73813462 139.52782372 -18.875 143.1875 Z M-89 142 C-89.33 142.66 -89.66 143.32 -90 144 C-88.6078125 143.7525 -88.6078125 143.7525 -87.1875 143.5 C-78.55246865 142.31377347 -71.09867051 142.64055149 -63 146 C-67.08487844 140.84950109 -72.81856247 139.3817725 -79.125 138.625 C-82.90973959 139.11866169 -85.59370407 140.26345697 -89 142 Z M30 284 C27.48133745 287.55837535 25.24284641 291.26365726 23 295 C22.03065182 296.58169857 21.0334498 298.14691967 20 299.6875 C19.5875 300.33074219 19.175 300.97398437 18.75 301.63671875 C15.85864265 303.88913776 13.54747243 303.41232402 10 303 C6.67578125 301.4609375 6.67578125 301.4609375 3.3125 299.375 C2.08448057 298.64130556 0.85529287 297.90956331 -0.375 297.1796875 C-0.9834375 296.81327148 -1.591875 296.44685547 -2.21875 296.06933594 C-10.38865433 291.16470587 -17.25603584 287.27618025 -27 289 C-32.52164511 290.70028885 -36.56384129 293.32123424 -41 297 C-39.87043363 304.99998769 -38.44604401 312.84692286 -36.5859375 320.7109375 C-35.96366942 324.20393563 -35.90140085 327.45939406 -36 331 C-37.05574219 331.34611328 -37.05574219 331.34611328 -38.1328125 331.69921875 C-64.81010611 338.86593666 -64.81010611 338.86593666 -85 356 C-86.80229161 359.76025673 -88.4599167 363.5809858 -90.08959961 367.41870117 C-92.43364108 372.90636839 -94.89075066 377.60884965 -99 382 C-99.51949219 382.57363281 -100.03898437 383.14726562 -100.57421875 383.73828125 C-104.53530927 387.90250462 -108.94310168 391.41077185 -113.4453125 394.96875 C-124.43049264 403.703144 -132.40029646 412.12174153 -134.33984375 426.5234375 C-133.61577426 431.79998986 -127.96050779 434.89813888 -124 438 C-110.10014854 448.34717377 -93.6663039 454.75340016 -77 459 C-76.67386719 458.43410156 -76.34773438 457.86820313 -76.01171875 457.28515625 C-75.57472656 456.55167969 -75.13773438 455.81820312 -74.6875 455.0625 C-74.25824219 454.33160156 -73.82898438 453.60070312 -73.38671875 452.84765625 C-72 451 -72 451 -69 450 C-69.66 453.63 -70.32 457.26 -71 461 C-48.2175363 465.86821226 -26.18397425 469.24057519 -2.875 469.4375 C-1.68225967 469.45582382 -1.68225967 469.45582382 -0.46542358 469.47451782 C1.8178981 469.50416674 4.09934967 469.50481113 6.3828125 469.49609375 C7.06310013 469.5071817 7.74338776 469.51826965 8.44429016 469.5296936 C15.42341397 469.42957304 19.48449303 465.66102217 24.3125 461.0625 C41.14846368 445.69273135 60.55038767 433.71878131 80 422 C79.7834375 421.15179688 79.566875 420.30359375 79.34375 419.4296875 C74.67891842 399.77692484 77.15169541 379.80511525 86.125 361.625 C88.85356917 355.71668094 89.38419187 349.4177594 90 343 C90.09667969 342.10152344 90.19335938 341.20304687 90.29296875 340.27734375 C90.52943941 336.44907545 90.31306056 334.42067512 88 331.3125 C87.01 330.549375 86.02 329.78625 85 329 C84.34902344 328.484375 83.69804687 327.96875 83.02734375 327.4375 C79.17092877 324.40206244 79.17092877 324.40206244 74.87890625 322.07421875 C72.49140265 320.70922189 72.18870449 319.45322551 71 317 C70.06727548 315.62757214 69.11821413 314.26615653 68.15625 312.9140625 C64.2966628 307.1925992 61.93023049 301.04225768 59.43359375 294.640625 C56.99450407 288.64343675 54.08674282 282.04337141 48 279 C40.72542085 278.15552149 35.04482698 278.33220408 30 284 Z M-133 441 C-132 443 -132 443 -132 443 Z M-141 445 C-140.67 445.66 -140.34 446.32 -140 447 C-139.34 446.67 -138.68 446.34 -138 446 C-138.99 445.67 -139.98 445.34 -141 445 Z M-130 447 C-129 449 -129 449 -129 449 Z M-126 447 C-125 450 -125 450 -125 450 Z M-121 451 C-117 452 -117 452 -117 452 Z M-145.8125 453.5 C-146.204375 453.995 -146.59625 454.49 -147 455 C-146.37466625 457.52363988 -146.37466625 457.52363988 -145 460 C-142.60648505 461.16210219 -142.60648505 461.16210219 -140 461 C-138.1645201 459.66621425 -138.1645201 459.66621425 -137 458 C-137.66 456.02 -138.32 454.04 -139 452 C-142.71736641 451.65099442 -142.71736641 451.65099442 -145.8125 453.5 Z M-122 452 C-121 454 -121 454 -121 454 Z M-113 455 C-113.33 456.32 -113.66 457.64 -114 459 C-111.525 459.495 -111.525 459.495 -109 460 C-109.99 459.67 -110.98 459.34 -112 459 C-112 458.01 -112 457.02 -112 456 C-111.01 455.67 -110.02 455.34 -109 455 C-110.32 455 -111.64 455 -113 455 Z M-109 456 C-108 458 -108 458 -108 458 Z M-134.1875 460.75 C-136.27067647 462.80518248 -136.27067647 462.80518248 -135.8125 465.1875 C-135.13767007 466.98099504 -135.13767007 466.98099504 -134 468 C-132.00041636 468.04080783 -129.99954746 468.04254356 -128 468 C-127.34 466.35 -126.68 464.7 -126 463 C-127.28965176 461.62437146 -128.62689293 460.29233607 -130 459 C-132.20660487 458.79176832 -132.20660487 458.79176832 -134.1875 460.75 Z M-121 459 C-120.67 459.66 -120.34 460.32 -120 461 C-119.34 460.67 -118.68 460.34 -118 460 C-118.99 459.67 -119.98 459.34 -121 459 Z M-105 460 C-104 463 -104 463 -104 463 Z M-96 462 C-96.33 462.99 -96.66 463.98 -97 465 C-96.01 465.495 -96.01 465.495 -95 466 C-95 465.01 -95 464.02 -95 463 C-94.01 462.67 -93.02 462.34 -92 462 C-93.32 462 -94.64 462 -96 462 Z M-114 463 C-111.06171403 465.50298434 -108.82097239 466.46930939 -105 467 C-107.93828597 464.49701566 -110.17902761 463.53069061 -114 463 Z M-122 466 C-123.78969026 468.42672567 -123.78969026 468.42672567 -125 471 C-123.68 472.32 -122.36 473.64 -121 475 C-118.49034386 474.29660434 -118.49034386 474.29660434 -116 473 C-114.8423415 471.12042756 -114.8423415 471.12042756 -115 469 C-116.10338257 467.14646548 -116.10338257 467.14646548 -118 466 C-119.32 466 -120.64 466 -122 466 Z M-88 466 C-87 468 -87 468 -87 468 Z M-79 467 C-75 468 -75 468 -75 468 Z M-103 468 C-94.42834713 473.71443524 -82.31470239 475.51655708 -72.375 477.8125 C-70.97157349 478.14084839 -70.97157349 478.14084839 -69.53979492 478.47583008 C-64.94402272 479.50619598 -60.743689 480.27579587 -56 480 C-58.90134778 478.06576815 -60.40244132 477.54854483 -63.7265625 476.88671875 C-65.13941528 476.59607544 -65.13941528 476.59607544 -66.58081055 476.29956055 C-68.08768433 475.99659058 -68.08768433 475.99659058 -69.625 475.6875 C-77.80376821 473.98982589 -85.80955066 472.05976124 -93.77001953 469.52416992 C-97.07033988 468.48712925 -99.48710556 468 -103 468 Z M-80 468 C-79 471 -79 471 -79 471 Z M-71 470 C-70 473 -70 473 -70 473 Z M-110 471 C-111.485 472.98 -111.485 472.98 -113 475 C-112.36020151 477.03241727 -112.36020151 477.03241727 -111 479 C-108.59889783 480.08024658 -108.59889783 480.08024658 -106 480 C-104 479 -104 479 -103 477 C-103.23043864 474.34533951 -103.23043864 474.34533951 -104 472 C-106.97 471.505 -106.97 471.505 -110 471 Z M-61 471 C-57 472 -57 472 -57 472 Z M-62 472 C-61 474 -61 474 -61 474 Z M-54 474 C-53 476 -53 476 -53 476 Z M-49 474 C-48 476 -48 476 -48 476 Z M-43 474 C-39 475 -39 475 -39 475 Z M-44 475 C-44 478 -44 478 -44 478 Z M-24 475 C-24.33 475.66 -24.66 476.32 -25 477 C-23.68 476.67 -22.36 476.34 -21 476 C-21.99 475.67 -22.98 475.34 -24 475 Z M-98 476 C-99.8624438 478.40858714 -99.8624438 478.40858714 -101 481 C-99.18887927 483.28773145 -98.39279457 483.95209822 -95.4375 484.3125 C-92.82203581 484.22966747 -92.82203581 484.22966747 -91 482 C-91.28983269 478.69316534 -91.28983269 478.69316534 -93 476 C-95.41482413 475.49940084 -95.41482413 475.49940084 -98 476 Z M-15 476 C-15.66 476.66 -16.32 477.32 -17 478 C-16.6814823 480.10820797 -16.6814823 480.10820797 -16 482 C-14.68 481.34 -13.36 480.68 -12 480 C-12 479.01 -12 478.02 -12 477 C-12.99 476.67 -13.98 476.34 -15 476 Z M-36 477 C-35.67 477.99 -35.34 478.98 -35 480 C-33.68 479.67 -32.36 479.34 -31 479 C-33.475 478.01 -33.475 478.01 -36 477 Z M1 478 C1.33 479.32 1.66 480.64 2 482 C2.66 481.67 3.32 481.34 4 481 C3.01 480.01 2.02 479.02 1 478 Z M-88 481 C-87.62095792 484.29075996 -87.62095792 484.29075996 -86 487 C-84.00041636 487.04080783 -81.99954746 487.04254356 -80 487 C-79.34 485.68 -78.68 484.36 -78 483 C-79.22590192 480.92022703 -79.22590192 480.92022703 -81 479 C-85.04622502 478.63019987 -85.04622502 478.63019987 -88 481 Z M-8 479 C-8 479.66 -8 480.32 -8 481 C-7.34 480.67 -6.68 480.34 -6 480 C-6.66 479.67 -7.32 479.34 -8 479 Z M-56 480 C-56 480.33 -56 480.66 -56 481 C-54.35 481 -52.7 481 -51 481 C-51 480.67 -51 480.34 -51 480 C-52.65 480 -54.3 480 -56 480 Z M-50 481 C-50 481.33 -50 481.66 -50 482 C-47.69 482 -45.38 482 -43 482 C-43 481.67 -43 481.34 -43 481 C-45.31 481 -47.62 481 -50 481 Z M-74.8125 484 C-75.204375 484.66 -75.59625 485.32 -76 486 C-75.0433747 488.47128202 -74.54027102 489.72986449 -72.125 490.9375 C-69.23179718 491.0225942 -68.10832763 489.88243538 -66 488 C-66.37904208 484.70924004 -66.37904208 484.70924004 -68 482 C-71.35345994 481.55875527 -72.48021066 481.42643935 -74.8125 484 Z M-43 482 C-43 482.33 -43 482.66 -43 483 C-41.02 483 -39.04 483 -37 483 C-37 482.67 -37 482.34 -37 482 C-38.98 482 -40.96 482 -43 482 Z M-35 483 C-35 483.33 -35 483.66 -35 484 C-33.02 484 -31.04 484 -29 484 C-29 483.67 -29 483.34 -29 483 C-30.98 483 -32.96 483 -35 483 Z M-59 484 C-60.32 485.32 -61.64 486.64 -63 488 C-62.34 489.65 -61.68 491.3 -61 493 C-58.08347826 493.16681109 -58.08347826 493.16681109 -55 493 C-54.34 492.34 -53.68 491.68 -53 491 C-52.92727438 488.44539786 -52.92727438 488.44539786 -54 486 C-56.47636012 484.62533375 -56.47636012 484.62533375 -59 484 Z M-25 484 C-25 484.33 -25 484.66 -25 485 C-16.31126982 485.89115181 -7.73139464 486.11624638 1 486 C1 485.67 1 485.34 1 485 C-7.68991301 484.20354316 -16.27457699 483.87147495 -25 484 Z M-49 488 C-49.33 489.32 -49.66 490.64 -50 492 C-49.01 492.495 -49.01 492.495 -48 493 C-48 491.35 -48 489.7 -48 488 C-48.33 488 -48.66 488 -49 488 Z M-32 488 C-32 488.66 -32 489.32 -32 490 C-31.01 489.67 -30.02 489.34 -29 489 C-29.99 488.67 -30.98 488.34 -32 488 Z M-41 489 C-40 492 -40 492 -40 492 Z M-29 490 C-29.0825 490.78375 -29.165 491.5675 -29.25 492.375 C-30 495 -30 495 -32.0625 496.3125 C-32.701875 496.539375 -33.34125 496.76625 -34 497 C-31.58354218 497.16687448 -31.58354218 497.16687448 -29 497 C-28.34 496.34 -27.68 495.68 -27 495 C-27.32041397 492.39719432 -27.32041397 492.39719432 -28 490 C-28.33 490 -28.66 490 -29 490 Z M-36 491 C-36.33 491.99 -36.66 492.98 -37 494 C-36.01 494.495 -36.01 494.495 -35 495 C-35.33 493.68 -35.66 492.36 -36 491 Z M-15 491 C-15 492.65 -15 494.3 -15 496 C-14.67 496 -14.34 496 -14 496 C-14 494.35 -14 492.7 -14 491 C-14.33 491 -14.66 491 -15 491 Z M-9 491 C-9.33 492.65 -9.66 494.3 -10 496 C-9.01 494.68 -8.02 493.36 -7 492 C-7.66 491.67 -8.32 491.34 -9 491 Z M-23 492 C-22.67 493.65 -22.34 495.3 -22 497 C-21.67 496.34 -21.34 495.68 -21 495 C-21.66 494.01 -22.32 493.02 -23 492 Z M-47 494 C-47 494.33 -47 494.66 -47 495 C-45.35 495 -43.7 495 -42 495 C-42 494.67 -42 494.34 -42 494 C-43.65 494 -45.3 494 -47 494 Z " fill="#21201C" transform="translate(280,29)"/>
<path d="M0 0 C0.99 0 1.98 0 3 0 C3.69039498 2.33008305 4.00131914 3.98609311 3.76953125 6.4296875 C3.7409957 9.11964263 3.7409957 9.11964263 5.79296875 10.87109375 C6.58316406 11.38800781 7.37335938 11.90492188 8.1875 12.4375 C8.96480469 12.97246094 9.74210938 13.50742188 10.54296875 14.05859375 C12.99607467 15.27082132 12.99607467 15.27082132 15.6171875 14.32421875 C18.23512764 12.98379836 18.23512764 12.98379836 20.9375 10.375 C24 8 24 8 27.125 7.5625 C30 8 30 8 32 9.0625 C34.87321524 10.40931964 36.98168698 9.68598023 40 9 C40.33 6.36 40.66 3.72 41 1 C43.48722141 1.34306502 44.79568171 1.81838374 46.6875 3.5 C48.59739264 7.13789074 49.31848666 10.89429153 49 15 C46.23163706 20.88277124 41.76471952 23.37898429 36 26 C32.60861036 26.96236937 29.25021081 27.71509787 25.78515625 28.359375 C22.81068409 28.87049242 22.81068409 28.87049242 20 31 C18.0625 31 18.0625 31 16 30 C15.15145278 28.60838256 14.30485542 27.21553427 13.46875 25.81640625 C10.77287381 22.48241043 7.0853432 20.31275565 3.55859375 17.9296875 C1.08597752 16.06484411 -0.5102299 14.70497506 -2 12 C-2.109375 9.4921875 -2.109375 9.4921875 -1.75 6.875 C-1.64171875 6.00617188 -1.5334375 5.13734375 -1.421875 4.2421875 C-1 2 -1 2 0 0 Z " fill="#393835" transform="translate(213,224)"/>
<path d="M0 0 C0.7312207 0.2172876 1.46244141 0.4345752 2.21582031 0.65844727 C3.44026855 0.98727905 3.44026855 0.98727905 4.68945312 1.32275391 C5.59018555 1.56888428 6.49091797 1.81501465 7.41894531 2.06860352 C8.88847656 2.46982422 8.88847656 2.46982422 10.38769531 2.87915039 C11.91136719 3.29583984 11.91136719 3.29583984 13.46582031 3.72094727 C15.01269531 4.1434375 15.01269531 4.1434375 16.59082031 4.57446289 C19.13259145 5.26874297 21.67425387 5.9634183 24.21582031 6.65844727 C24.54582031 5.33844727 24.87582031 4.01844727 25.21582031 2.65844727 C29.73166731 1.52948552 29.73166731 1.52948552 31.94628906 2.11938477 C40.94384817 4.25649863 51.35178076 2.72242321 60.21582031 0.65844727 C59.66601907 5.27830495 59.66601907 5.27830495 57.68457031 6.95141602 C57.03488281 7.24661133 56.38519531 7.54180664 55.71582031 7.84594727 C55.08675781 8.14887695 54.45769531 8.45180664 53.80957031 8.76391602 C46.2249731 11.37968825 39.07916632 11.94976298 31.09082031 11.84594727 C30.14078125 11.84530273 29.19074219 11.8446582 28.21191406 11.84399414 C23.1040514 11.81211428 18.27595763 11.38639684 13.21582031 10.65844727 C9.72112323 10.60008872 6.22891903 10.72846301 2.73730469 10.87329102 C0.66503906 10.91625977 0.66503906 10.91625977 -2.78417969 10.65844727 C-4.939205 7.4259093 -5.25274103 6.40693803 -4.78417969 2.65844727 C-2.67100114 -0.51132055 -2.67100114 -0.51132055 0 0 Z " fill="#3F3F3B" transform="translate(210.7841796875,254.341552734375)"/>
<path d="M0 0 C0 0.99 0 1.98 0 3 C2.64 3 5.28 3 8 3 C8.33 3.66 8.66 4.32 9 5 C9.99 5 10.98 5 12 5 C12.33 4.34 12.66 3.68 13 3 C16 4 16 4 18 7 C20.64 6.67 23.28 6.34 26 6 C26 6.99 26 7.98 26 9 C26.99 9 27.98 9 29 9 C29.33 8.34 29.66 7.68 30 7 C30.99 7.33 31.98 7.66 33 8 C33.6875 10.0625 33.6875 10.0625 34 12 C32.4375 13.5625 32.4375 13.5625 30 15 C23.74837361 14.45058943 17.62065229 12.90653568 11.5 11.5625 C10.49324219 11.34529297 9.48648438 11.12808594 8.44921875 10.90429688 C3.23978052 9.76750596 -1.89522336 8.54147048 -7 7 C-6.34 6.34 -5.68 5.68 -5 5 C-5.33 4.34 -5.66 3.68 -6 3 C-4.60722783 0.21445565 -3.01148006 0 0 0 Z " fill="#72716F" transform="translate(198,494)"/>
<path d="M0 0 C-0.33 0.99 -0.66 1.98 -1 3 C-3.5607367 4.08637315 -5.97564549 4.95188786 -8.625 5.75 C-9.32496094 5.98332031 -10.02492187 6.21664063 -10.74609375 6.45703125 C-15.49514057 7.92844279 -19.05610485 8.17478697 -24 7 C-27.28791299 4.99866166 -28.71413435 3.96754528 -29.8125 0.25 C-29.874375 -0.4925 -29.93625 -1.235 -30 -2 C-21.34842709 -4.44671179 -8.00145869 -4.00072935 0 0 Z " fill="#454541" transform="translate(257,274)"/>
<path d="M0 0 C1.258125 0.391875 2.51625 0.78375 3.8125 1.1875 C12.14187668 3.69475087 20.58214055 5.81343076 29 8 C27.68 8.33 26.36 8.66 25 9 C25.33 10.32 25.66 11.64 26 13 C25.05125 12.814375 24.1025 12.62875 23.125 12.4375 C20.10131207 11.71313368 20.10131207 11.71313368 18 13 C17.01 14.485 17.01 14.485 16 16 C13.77810176 13.77810176 13.07401108 11.91517292 12 9 C9.66834966 8.66501699 9.66834966 8.66501699 7 9 C4.68622853 10.89584109 4.68622853 10.89584109 3 13 C3.33 11.68 3.66 10.36 4 9 C3.34 9 2.68 9 2 9 C1.814375 8.071875 1.814375 8.071875 1.625 7.125 C1.12802644 4.80879168 1.12802644 4.80879168 -1 3 C-0.67 2.01 -0.34 1.02 0 0 Z " fill="#535350" transform="translate(175,497)"/>
<path d="M0 0 C0.33 0.99 0.66 1.98 1 3 C1.5775 2.62875 2.155 2.2575 2.75 1.875 C5 1 5 1 7.1875 1.75 C9 3 9 3 10 5 C11.32796291 5.35412344 12.66216607 5.68521554 14 6 C17 8 17 8 18 10 C13.545 10.495 13.545 10.495 9 11 C9 10.67 9 10.34 9 10 C6.36 10 3.72 10 1 10 C1 9.67 1 9.34 1 9 C-2.83724172 8.09586327 -6.37502274 7.89423102 -10.3125 7.9375 C-11.91544922 7.95103516 -11.91544922 7.95103516 -13.55078125 7.96484375 C-14.35902344 7.97644531 -15.16726562 7.98804688 -16 8 C-11.96707255 5.7655402 -8.55032566 5.45503257 -4 5 C-4 3.68 -4 2.36 -4 1 C-2.68 0.67 -1.36 0.34 0 0 Z M3 3 C3.33 3.99 3.66 4.98 4 6 C5.32 5.67 6.64 5.34 8 5 C5.525 4.01 5.525 4.01 3 3 Z " fill="#706F6D" transform="translate(241,503)"/>
<path d="M0 0 C0 0.99 0 1.98 0 3 C2.64 3 5.28 3 8 3 C8.33 3.66 8.66 4.32 9 5 C11.08574555 7.3837092 13.11666989 8.70747271 16 10 C7.89563895 11.98474148 0.74839684 9.3507506 -7 7 C-6.34 6.34 -5.68 5.68 -5 5 C-5.33 4.34 -5.66 3.68 -6 3 C-4.60722783 0.21445565 -3.01148006 0 0 0 Z " fill="#6D6C6A" transform="translate(198,494)"/>
<path d="M0 0 C0.53625 0.226875 1.0725 0.45375 1.625 0.6875 C0.64558159 3.84340375 -0.38859085 4.69577269 -3.25 6.4375 C-8.32222469 8.38506306 -14.04564486 8.4822284 -19.375 7.6875 C-21.234375 6.1640625 -21.234375 6.1640625 -22.375 4.6875 C-19.2231762 3.97579785 -16.15027023 3.57842186 -12.9375 3.3125 C-8.32676326 2.85295813 -4.38112007 -0.57646317 0 0 Z " fill="#62625F" transform="translate(296.375,186.3125)"/>
<path d="M0 0 C-0.33 1.65 -0.66 3.3 -1 5 C-6.56483842 6.20320831 -12.33009615 6.52515593 -18 6 C-18.99 5.34 -19.98 4.68 -21 4 C-20.67 3.01 -20.34 2.02 -20 1 C-19.26394531 1.02320313 -18.52789062 1.04640625 -17.76953125 1.0703125 C-16.30580078 1.09738281 -16.30580078 1.09738281 -14.8125 1.125 C-13.36810547 1.15980469 -13.36810547 1.15980469 -11.89453125 1.1953125 C-7.31838932 0.88653099 -4.51687658 -1.67291725 0 0 Z " fill="#676764" transform="translate(214,188)"/>
<path d="M0 0 C0.66 0.33 1.32 0.66 2 1 C2 1.99 2 2.98 2 4 C2.99 3.67 3.98 3.34 5 3 C5 3.99 5 4.98 5 6 C5.33 5.34 5.66 4.68 6 4 C8.0625 3.375 8.0625 3.375 10 3 C9.45276317 6.37462715 8.9451 8.08235 7 11 C5.20620902 10.55005243 3.41501072 10.08975857 1.625 9.625 C0.62726563 9.36976563 -0.37046875 9.11453125 -1.3984375 8.8515625 C-4 8 -4 8 -6 6 C-5.34 6 -4.68 6 -4 6 C-3.67 4.35 -3.34 2.7 -3 1 C-2.01 0.67 -1.02 0.34 0 0 Z " fill="#656462" transform="translate(179,488)"/>
<path d="M0 0 C0.33 0.99 0.66 1.98 1 3 C1.99 3 2.98 3 4 3 C4.33 2.34 4.66 1.68 5 1 C5.99 1.33 6.98 1.66 8 2 C8.6875 4.0625 8.6875 4.0625 9 6 C7.4375 7.5625 7.4375 7.5625 5 9 C1.375 8.875 1.375 8.875 -2 8 C-2.66 7.01 -3.32 6.02 -4 5 C-3.01 4.67 -2.02 4.34 -1 4 C-0.26676204 1.98491642 -0.26676204 1.98491642 0 0 Z " fill="#4B4A47" transform="translate(223,500)"/>
<path d="M0 0 C0.59355614 2.64860427 0.74209269 5.29197322 1 8 C-1.97 8 -4.94 8 -8 8 C-6.53333333 1.4 -6.53333333 1.4 -4 -0.5 C-2 -1 -2 -1 0 0 Z " fill="#777774" transform="translate(265,519)"/>
<path d="M0 0 C0.54372951 3.05847848 1 5.88772805 1 9 C-5.875 8.125 -5.875 8.125 -7 7 C-7.04063832 5.33382885 -7.042721 3.66611905 -7 2 C-2.25 0 -2.25 0 0 0 Z " fill="#737370" transform="translate(239,515)"/>
<path d="M0 0 C0.33 0.99 0.66 1.98 1 3 C1.66 3 2.32 3 3 3 C1.81776262 5.36447476 0.79704573 6.71457146 -1.734375 7.62109375 C-4.6019893 8.10067752 -7.34381703 8.09408895 -10.25 8.0625 C-11.32765625 8.05347656 -12.4053125 8.04445313 -13.515625 8.03515625 C-14.33546875 8.02355469 -15.1553125 8.01195312 -16 8 C-11.96707255 5.7655402 -8.55032566 5.45503257 -4 5 C-4 3.68 -4 2.36 -4 1 C-2.68 0.67 -1.36 0.34 0 0 Z " fill="#7F7E7C" transform="translate(241,503)"/>
<path d="M0 0 C0.66 0.33 1.32 0.66 2 1 C-3.28 6.28 -8.56 11.56 -14 17 C-14 12.08113186 -10.31173311 9.3948461 -7 6 C-4.72300284 3.91201998 -2.39497582 1.9550823 0 0 Z " fill="#777674" transform="translate(100,428)"/>
<path d="M0 0 C0.61875 0.680625 0.61875 0.680625 1.25 1.375 C3.06408095 3.05950374 4.75285627 3.99265971 7 5 C0.93179132 6.08360869 -3.10106757 5.79074734 -9 4 C-6.06279492 2.47700477 -3.0831351 1.19899698 0 0 Z " fill="#575754" transform="translate(207,499)"/>
<path d="M0 0 C0.66 0.33 1.32 0.66 2 1 C-2.62 5.62 -7.24 10.24 -12 15 C-12.66 14.67 -13.32 14.34 -14 14 C-9.67106815 8.81580806 -5.23435005 4.27293882 0 0 Z " fill="#6F6F6C" transform="translate(61,479)"/>
<path d="M0 0 C0.66 0 1.32 0 2 0 C2 0.66 2 1.32 2 2 C2.99 2 3.98 2 5 2 C5 3.65 5 5.3 5 7 C3.35 7.33 1.7 7.66 0 8 C-0.79953138 4.71303767 -1.09658936 3.28976808 0 0 Z " fill="#666563" transform="translate(246,517)"/>
<path d="M0 0 C1.65 0.33 3.3 0.66 5 1 C5.5625 2.9375 5.5625 2.9375 6 5 C5 6 5 6 1.9375 6.0625 C0.4834375 6.0315625 0.4834375 6.0315625 -1 6 C-0.67 4.02 -0.34 2.04 0 0 Z " fill="#686764" transform="translate(158,496)"/>
<path d="M0 0 C2.625 0.375 2.625 0.375 5 1 C4.67 2.65 4.34 4.3 4 6 C2.35 6 0.7 6 -1 6 C-1.625 4.125 -1.625 4.125 -2 2 C-1.34 1.34 -0.68 0.68 0 0 Z " fill="#62615E" transform="translate(220,515)"/>
<path d="M0 0 C0.625 1.875 0.625 1.875 1 4 C0.34 4.66 -0.32 5.32 -1 6 C-3.625 5.625 -3.625 5.625 -6 5 C-6 3.68 -6 2.36 -6 1 C-4 0 -4 0 0 0 Z " fill="#62615E" transform="translate(187,506)"/>
<path d="M0 0 C1.67542976 0.28604898 3.34385343 0.61781233 5 1 C4.67 2.65 4.34 4.3 4 6 C2.35 6 0.7 6 -1 6 C-1.042721 4.33388095 -1.04063832 2.66617115 -1 1 C-0.67 0.67 -0.34 0.34 0 0 Z " fill="#5B5B58" transform="translate(207,512)"/>
<path d="M0 0 C1.32 0 2.64 0 4 0 C4.38218767 1.65614657 4.71395102 3.32457024 5 5 C4 6 4 6 1.4375 6.0625 C0.2309375 6.0315625 0.2309375 6.0315625 -1 6 C-1.042721 4.33388095 -1.04063832 2.66617115 -1 1 C-0.67 0.67 -0.34 0.34 0 0 Z " fill="#656562" transform="translate(195,509)"/>
<path d="M0 0 C1.65 0.33 3.3 0.66 5 1 C4.67 2.65 4.34 4.3 4 6 C2.35 5.67 0.7 5.34 -1 5 C-0.67 3.35 -0.34 1.7 0 0 Z " fill="#767573" transform="translate(147,490)"/>
<path d="M0 0 C2.125 0.375 2.125 0.375 4 1 C4 2.65 4 4.3 4 6 C2.35 6 0.7 6 -1 6 C-1.625 4.125 -1.625 4.125 -2 2 C-1.34 1.34 -0.68 0.68 0 0 Z " fill="#6B6B68" transform="translate(137,482)"/>
<path d="M0 0 C2.125 0.375 2.125 0.375 4 1 C4 2.65 4 4.3 4 6 C2.35 6 0.7 6 -1 6 C-1.625 4.125 -1.625 4.125 -2 2 C-1.34 1.34 -0.68 0.68 0 0 Z " fill="#62615E" transform="translate(171,501)"/>
<path d="M0 0 C2.69082872 0.17635452 5.32851446 0.61835921 8 1 C8 1.33 8 1.66 8 2 C10.97 2.495 10.97 2.495 14 3 C14 3.33 14 3.66 14 4 C12.06318839 4.08107583 10.1254066 4.13922475 8.1875 4.1875 C7.10855469 4.22230469 6.02960938 4.25710937 4.91796875 4.29296875 C2 4 2 4 0.11328125 2.48828125 C-0.43779297 1.75158203 -0.43779297 1.75158203 -1 1 C-0.67 0.67 -0.34 0.34 0 0 Z " fill="#868684" transform="translate(275,190)"/>
<path d="M0 0 C2.0625 0.4375 2.0625 0.4375 4 1 C4 2.32 4 3.64 4 5 C2.68 5.33 1.36 5.66 0 6 C-1 4 -1 4 -1 1 C-0.67 0.67 -0.34 0.34 0 0 Z " fill="#B8B8B7" transform="translate(273,505)"/>
<path d="M0 0 C0.53625 0.37125 1.0725 0.7425 1.625 1.125 C1.625 1.785 1.625 2.445 1.625 3.125 C-1.345 3.125 -4.315 3.125 -7.375 3.125 C-7.705 2.465 -8.035 1.805 -8.375 1.125 C-2.95961538 -1.09038462 -2.95961538 -1.09038462 0 0 Z " fill="#2E2E2A" transform="translate(235.375,505.875)"/>
<path d="M0 0 C0.66 0.33 1.32 0.66 2 1 C1.030625 1.845625 0.06125 2.69125 -0.9375 3.5625 C-4.20125576 6.78017921 -4.81523971 9.38099287 -5 14 C-5.33 14 -5.66 14 -6 14 C-6.61514196 6.74132492 -6.61514196 6.74132492 -3.5625 3.0625 C-2.716875 2.381875 -1.87125 1.70125 -1 1 C-0.67 0.67 -0.34 0.34 0 0 Z " fill="#7A7977" transform="translate(247,162)"/>
<path d="M0 0 C0.99 0.33 1.98 0.66 3 1 C3.75 3 3.75 3 4 5 C3 6 3 6 0.4375 6.0625 C-0.7690625 6.0315625 -0.7690625 6.0315625 -2 6 C-1.34 4.02 -0.68 2.04 0 0 Z " fill="#A09F9E" transform="translate(228,501)"/>
<path d="M0 0 C2.475 0.495 2.475 0.495 5 1 C4.67 2.32 4.34 3.64 4 5 C3.01 5 2.02 5 1 5 C0.67 3.35 0.34 1.7 0 0 Z " fill="#9F9E9D" transform="translate(282,505)"/>
<path d="M0 0 C0.99 0.33 1.98 0.66 3 1 C3.6875 3.0625 3.6875 3.0625 4 5 C3.01 5.495 3.01 5.495 2 6 C1.01 5.67 0.02 5.34 -1 5 C-0.67 3.35 -0.34 1.7 0 0 Z " fill="#9E9D9B" transform="translate(211,497)"/>
<path d="M0 0 C0.33 0.66 0.66 1.32 1 2 C0.01 2.66 -0.98 3.32 -2 4 C-2.72382467 6.05925139 -2.72382467 6.05925139 -3 8 C-3.99 8 -4.98 8 -6 8 C-4.52307692 2.33846154 -4.52307692 2.33846154 -1.875 0.625 C-0.946875 0.315625 -0.946875 0.315625 0 0 Z " fill="#989896" transform="translate(276,519)"/>
<path d="M0 0 C0.598125 0.226875 1.19625 0.45375 1.8125 0.6875 C1.02875 1.285625 0.245 1.88375 -0.5625 2.5 C-3.33324323 4.59835249 -3.33324323 4.59835249 -5.1875 7.6875 C-5.41803497 4.84423536 -5.54653101 3.22604651 -3.9375 0.8125 C-2.1875 -0.3125 -2.1875 -0.3125 0 0 Z " fill="#878684" transform="translate(211.1875,254.3125)"/>
<path d="M0 0 C1.98 0 3.96 0 6 0 C5.67 0.99 5.34 1.98 5 3 C2.36 3 -0.28 3 -3 3 C-2.01 2.67 -1.02 2.34 0 2 C0 1.34 0 0.68 0 0 Z " fill="#403F3C" transform="translate(283,190)"/>
<path d="M0 0 C0.33 1.32 0.66 2.64 1 4 C0.01 4.495 0.01 4.495 -1 5 C-3.125 4.0625 -3.125 4.0625 -5 3 C-4.67 2.34 -4.34 1.68 -4 1 C-1.9375 0.375 -1.9375 0.375 0 0 Z " fill="#929290" transform="translate(259,505)"/>
<path d="M0 0 C0.33 1.32 0.66 2.64 1 4 C-2 5 -2 5 -5 5 C-4.1875 3.0625 -4.1875 3.0625 -3 1 C-2.01 0.67 -1.02 0.34 0 0 Z " fill="#959593" transform="translate(188,491)"/>
<path d="M0 0 C0.99 0 1.98 0 3 0 C3 1.98 3 3.96 3 6 C2.34 5.01 1.68 4.02 1 3 C-0.32 3.99 -1.64 4.98 -3 6 C-1.125 1.125 -1.125 1.125 0 0 Z " fill="#868684" transform="translate(208,479)"/>
<path d="M0 0 C1.65 0 3.3 0 5 0 C4.67 1.32 4.34 2.64 4 4 C2.35 4 0.7 4 -1 4 C-0.67 2.68 -0.34 1.36 0 0 Z " fill="#9E9E9C" transform="translate(201,497)"/>
<path d="M0 0 C1.98 0.495 1.98 0.495 4 1 C4.33 2.32 4.66 3.64 5 5 C2.03 4.505 2.03 4.505 -1 4 C-0.67 2.68 -0.34 1.36 0 0 Z " fill="#9F9E9D" transform="translate(143,469)"/>
<path d="M0 0 C0.99 0 1.98 0 3 0 C2.67 0.99 2.34 1.98 2 3 C1.34 3 0.68 3 0 3 C0 2.01 0 1.02 0 0 Z " fill="#848381" transform="translate(264,507)"/>
</svg>
