<?xml version="1.0" encoding="UTF-8"?>
<svg version="1.1" xmlns="http://www.w3.org/2000/svg" width="1280" height="257">
<path d="M0 0 C5.09512573 2.49761065 8.30810904 6.08704312 11 11 C11.72166191 13.31691454 12.40059529 15.64848923 13 18 C13.99 18.99 13.99 18.99 15 20 C16.31426276 29.8500535 14.5963641 39.58508175 12.75 49.25 C12.54560303 50.32572266 12.34120605 51.40144531 12.13061523 52.50976562 C7.63742475 74.71261092 -2.78572177 90.49447307 -18 107 C-19.73953814 108.97298265 -21.46391203 110.95839859 -23.1875 112.9453125 C-24.50231463 114.43581357 -25.83858833 115.90747237 -27.1875 117.3671875 C-43.3732284 134.91995377 -44.73898437 148.7182973 -44 172 C-43.46177054 181.33793606 -42.74273051 188.7225937 -36.375 196 C-33.36130983 198.18580847 -33.36130983 198.18580847 -30.9609375 197.9609375 C-22.60657534 195.74688392 -16.90264831 189.01913434 -11.09765625 183 C-10.61216309 182.50113281 -10.12666992 182.00226563 -9.62646484 181.48828125 C-8.25236118 180.06708411 -6.89715002 178.62769279 -5.54296875 177.1875 C-2.84770563 174.86899409 -1.52619369 174.09699886 2 174 C4.6148307 175.00648222 6.62709827 176.464593 9 178 C7.39488147 193.09257289 -9.2700137 208.27971747 -20 218 C-28.64749669 224.76496581 -35.66970086 228.84096846 -46.94482422 227.82470703 C-57.17558598 226.53642496 -65.55886216 224.4753749 -72.3125 216.25 C-83.68097246 199.90782084 -80.62408406 171.26186315 -77.375 152.5625 C-76.65061078 148.69241697 -75.83919427 144.84662639 -75 141 C-74.78569336 139.96891113 -74.57138672 138.93782227 -74.35058594 137.87548828 C-69.55091579 114.87270232 -63.48625315 91.2040206 -53.51953125 69.82421875 C-52.1633099 66.72711175 -51.41787185 63.64337984 -50.67578125 60.34765625 C-49.05309334 53.57538567 -46.2870154 47.64805316 -43.1875 41.4375 C-42.67896484 40.39142578 -42.17042969 39.34535156 -41.64648438 38.26757812 C-21.28360866 -3.30985253 -21.28360866 -3.30985253 0 0 Z M-11.9375 23.625 C-12.58589844 24.11226562 -13.23429687 24.59953125 -13.90234375 25.1015625 C-18.66642104 29.41318552 -21.62072621 33.73355714 -24.15625 39.62109375 C-24.42586548 40.24291031 -24.69548096 40.86472687 -24.9732666 41.50538635 C-25.5392747 42.81685628 -26.10037272 44.13045536 -26.65673828 45.44604492 C-27.48682298 47.40638103 -28.33372751 49.35871869 -29.18359375 51.31054688 C-38.21141708 71.48259547 -38.21141708 71.48259547 -41 93 C-40.34 93.33 -39.68 93.66 -39 94 C-34.51599014 90.13907836 -30.0844192 86.28864016 -26 82 C-25.35933594 81.34257813 -24.71867187 80.68515625 -24.05859375 80.0078125 C-23.35863281 79.26273438 -22.65867187 78.51765625 -21.9375 77.75 C-20.96103516 76.72132812 -20.96103516 76.72132812 -19.96484375 75.671875 C-17.29350291 72.03927632 -15.74425135 68.13776362 -14 64 C-13.3392281 62.55588196 -12.67265897 61.11440084 -12 59.67578125 C-3.68604824 42.07984264 -3.68604824 42.07984264 -2 23 C-2.66 22.34 -3.32 21.68 -4 21 C-8.21677568 21 -8.8032098 21.20445906 -11.9375 23.625 Z " fill="#000000" transform="translate(79,0)"/>
<path d="M0 0 C3.29120886 1.90158734 4.67709607 3.28961136 6.25 6.75 C10.71080816 26.08016867 9.36317733 49.64892818 5.56103516 69.02734375 C4.85090001 72.79000937 4.22995074 76.56618463 3.60546875 80.34375 C3.22133218 82.63439921 2.83525779 84.92471021 2.44805908 87.21484375 C2.19524928 88.71321307 1.9443278 90.21190249 1.69549561 91.7109375 C-1.80019544 112.60846267 -9.33169867 127.39660347 -22.34814453 143.90283203 C-23.87632856 145.84298881 -25.3918127 147.79218079 -26.90234375 149.74609375 C-32.22415347 156.60934756 -37.72340135 163.29423988 -43.3671875 169.89453125 C-45.88338217 172.84420349 -48.31892969 175.85470418 -50.75 178.875 C-53.76471612 182.58170612 -56.88127231 186.01191799 -60.32421875 189.3203125 C-62.14824823 191.14859379 -63.78154515 193.08133505 -65.4375 195.0625 C-69.26665244 199.51540578 -73.72081792 203.36040896 -79 206 C-82.47968002 206.25775408 -85.13343059 206.36487133 -88.375 205 C-90.90809065 201.88234997 -91.14571463 198.87727626 -91 195 C-89.99010395 188.32405559 -87.67340753 181.9891708 -85.48486328 175.62792969 C-77.21095409 151.49386952 -69.77213191 119.64824066 -80 95 C-80.26554687 94.15566406 -80.53109375 93.31132813 -80.8046875 92.44140625 C-84.98788045 79.3920654 -94.13367644 69.03677065 -102.45214844 58.38525391 C-111.1445661 47.16849145 -111.1445661 47.16849145 -110.8125 42.1875 C-110 40 -110 40 -108 39 C-94.88325879 37.64012788 -94.88325879 37.64012788 -89.8125 41.25 C-88.49616626 42.4519912 -87.22959484 43.70941335 -86 45 C-85.1853125 45.81597656 -84.370625 46.63195312 -83.53125 47.47265625 C-60.96285064 71.0462573 -49.26408469 93.28344312 -48.48242188 126.11328125 C-48.44826172 127.18449219 -48.41410156 128.25570312 -48.37890625 129.359375 C-48.3538501 130.32327148 -48.32879395 131.28716797 -48.30297852 132.28027344 C-47.9824499 135.15754074 -47.19354934 137.37472868 -46 140 C-41.20066587 137.68984094 -38.86831908 134.37377658 -36.1875 129.9375 C-35.75880615 129.23939209 -35.3301123 128.54128418 -34.88842773 127.82202148 C-30.16285702 119.91747822 -26.34672887 111.57291125 -23 103 C-22.7304248 102.31115723 -22.46084961 101.62231445 -22.18310547 100.91259766 C-19.85314863 94.49392355 -18.89194661 88.00010614 -18 81.25 C-17.83266357 80.00935791 -17.66532715 78.76871582 -17.49291992 77.49047852 C-14.73724144 56.44582034 -12.92994789 35.06296497 -12.37817383 13.84350586 C-12.22343018 9.20499704 -11.64026287 5.31880661 -10 1 C-6.39427296 -0.20190901 -3.7897565 -0.32670315 0 0 Z " fill="#000000" transform="translate(530,20)"/>
<path d="M0 0 C4.32321022 0.34470779 6.33400387 0.51198965 9.4140625 3.75 C15.76336803 17.71847217 13.1595781 31.77813637 9.1015625 45.9375 C8.3676449 48.57612386 7.64397535 51.217496 6.921875 53.859375 C6.58188477 55.09880859 6.24189453 56.33824219 5.89160156 57.61523438 C4.65752619 62.4330014 3.7447241 67.27588243 2.9765625 72.1875 C11.12850187 69.52564225 15.00182988 63.87765766 19.9765625 57.1875 C26.9287791 47.86356368 34.76746902 41.18271685 43.9765625 34.1875 C48.95702812 30.3880391 53.61760014 26.79882935 57.6015625 21.9375 C64.39156217 13.82766433 74.35380408 12.40345655 84.38647461 11.30029297 C93.87379887 10.22625626 101.44258176 8.24336675 109.84765625 3.7109375 C115.15771958 1.12551341 119.44820054 0.77553866 125.0234375 2.4140625 C129.48625613 4.18133868 132.06777703 6.39606027 134.19921875 10.59765625 C136.37511759 15.89312332 138.10702671 20.82966884 138.09008789 26.58886719 C138.09001236 27.4494574 138.08993683 28.31004761 138.08985901 29.19671631 C138.08469772 30.11664368 138.07953644 31.03657104 138.07421875 31.984375 C138.07209633 33.40753021 138.07209633 33.40753021 138.06993103 34.85943604 C138.06433992 37.88548962 138.05178902 40.91146883 138.0390625 43.9375 C138.03404635 45.99088435 138.02948365 48.04426986 138.02539062 50.09765625 C138.01437339 55.12763276 137.99711483 60.15755378 137.9765625 65.1875 C139.56188099 64.89230659 141.1460569 64.59097339 142.72973633 64.28710938 C143.61204422 64.11997437 144.49435211 63.95283936 145.40339661 63.78063965 C149.11703122 62.92461092 152.30464255 61.45093383 155.6640625 59.6875 C156.33759766 59.34364258 157.01113281 58.99978516 157.70507812 58.64550781 C163.3106258 55.70690523 168.57682528 52.32642875 173.75268555 48.68945312 C179.72636868 44.51354321 185.5949203 40.92566422 192.9765625 40.1875 C193.7265625 41.75 193.7265625 41.75 193.9765625 44.1875 C184.98037197 62.26495142 161.71221052 74.29050888 143.9765625 82.1875 C135.96481251 84.52635744 129.37373281 82.51451169 121.9765625 79.1875 C117.91165435 76.61582342 116.45103908 74.70549906 114.9765625 70.1875 C114.11391926 61.00050806 115.52572708 51.92801698 116.9765625 42.875 C119.93643955 29.69726855 119.93643955 29.69726855 116.9765625 17.1875 C108.57653348 18.4548728 101.13037322 24.60552486 95.9765625 31.1875 C89.83608281 40.63207073 87.51872256 51.3736741 84.9765625 62.1875 C84.68604004 63.40880615 84.68604004 63.40880615 84.38964844 64.65478516 C83.66173999 67.7160651 82.93525136 70.77744766 82.23193359 73.84448242 C81.58212495 76.67796645 80.89666699 79.42718652 79.9765625 82.1875 C71.06518073 84.43697501 71.06518073 84.43697501 66.9765625 83.5 C64.9765625 82.1875 64.9765625 82.1875 62.9765625 79.1875 C62.4836484 73.60114017 63.69739169 69.36485694 65.4765625 64.1875 C68.1209689 55.98757224 68.53872625 48.76986657 67.9765625 40.1875 C55.80591824 45.95715701 44.00247518 56.72810476 36.6015625 68.0625 C29.35202302 79.00753643 17.02499207 92.38816624 3.8515625 95.5 C-2.76873121 94.96610535 -7.10225786 91.25276812 -11.5234375 86.5 C-20.03316855 73.3808313 -11.62376507 49.91387046 -8.68774414 35.64990234 C-7.73798929 30.69972842 -6.95329834 25.78384926 -6.77734375 20.7421875 C-6.74447266 19.97519531 -6.71160156 19.20820312 -6.67773438 18.41796875 C-6.61623816 16.840002 -6.55898671 15.26186443 -6.50585938 13.68359375 C-5.91887649 0.54846732 -5.91887649 0.54846732 0 0 Z " fill="#000000" transform="translate(568.0234375,103.8125)"/>
<path d="M0 0 C9.17750406 2.67468242 16.50074969 9.22447034 23.58813477 15.3684082 C28.09205781 19.26727693 32.79244882 22.83184787 37.58203125 26.375 C42.35254689 29.95129017 46.96354444 33.69465041 51.5 37.5625 C52.15871094 38.11164063 52.81742187 38.66078125 53.49609375 39.2265625 C59.13554552 44.32593314 62.14236738 50.8392404 65.5 57.5625 C66.00015625 58.49191406 66.5003125 59.42132813 67.015625 60.37890625 C67.46421875 61.22324219 67.9128125 62.06757812 68.375 62.9375 C68.76429688 63.66710937 69.15359375 64.39671875 69.5546875 65.1484375 C74.42173823 77.57751746 73.70941647 97.96824946 69.5625 110.4375 C62.68989654 125.80890043 49.92794109 144.80302498 34.05810547 151.69067383 C23.47784449 155.29652532 11.71679166 156.12393231 0.64562988 157.27038574 C-11.4849022 158.5317894 -23.50328393 160.01698108 -35.48461914 162.34350586 C-40.25270014 163.25646436 -44.64027623 163.84534107 -49.5 163.5625 C-50.5 162.5625 -50.5 162.5625 -50.5546875 160.734375 C-49.79513765 150.49696403 -45.93974365 141.79713049 -40.71484375 133.0546875 C-36.56133843 125.93682802 -33.24679522 118.56293217 -30.125 110.9375 C-29.85097351 110.27530457 -29.57694702 109.61310913 -29.2946167 108.93084717 C-6.48051505 59.86497991 -6.48051505 59.86497991 -6.88671875 8.328125 C-7.77760497 5.76328059 -7.54962643 4.03661944 -6.5 1.5625 C-3.5 -0.4375 -3.5 -0.4375 0 0 Z M13.5 33.5625 C10.37457152 41.7670111 7.82197397 50.07196352 5.375 58.5 C0.32870728 75.64225423 -5.45797759 92.51392959 -12.09765625 109.109375 C-12.51208984 110.14650635 -12.92652344 111.1836377 -13.35351562 112.25219727 C-14.13072998 114.17938124 -14.9189154 116.10219643 -15.72070312 118.01928711 C-17.8984552 123.3742596 -19.86830201 128.6919659 -19.5 134.5625 C-18.31281132 136.80967513 -18.31281132 136.80967513 -16.25 138.0625 C-15.62609375 138.5265625 -15.0021875 138.990625 -14.359375 139.46875 C-7.02177534 143.78498509 2.96313207 141.9520085 10.8125 140.0625 C27.09485533 135.26862472 41.20887505 127.38515949 50.02734375 112.375 C56.10359813 100.77048235 57.33866074 90.43161931 53.5625 77.75 C47.51448314 59.30544066 36.8895595 46.05059498 20.5 35.5625 C19.51 34.9025 18.52 34.2425 17.5 33.5625 C16.18 33.5625 14.86 33.5625 13.5 33.5625 Z " fill="#000000" transform="translate(192.5,59.4375)"/>
<path d="M0 0 C1.44803689 1.22768345 2.89590316 2.45591738 4.3203125 3.7109375 C9.32688793 7.55319306 15.44394665 9.82225069 21.3125 12 C26.00177163 13.82852101 29.67030992 16.03376829 31.8125 20.8125 C32.79035857 32.22084999 30.76559227 42.64756363 24 52 C23.11520659 53.38964611 22.24014992 54.78554019 21.375 56.1875 C20.79878906 57.10595703 20.79878906 57.10595703 20.2109375 58.04296875 C19.33235548 59.46287066 18.47518763 60.89609419 17.63134766 62.33691406 C16.09115705 64.85119109 14.43359011 67.19237598 12.6875 69.56640625 C8.80639285 75.0710963 5.89282072 80.86953783 3 86.9375 C0.14558734 92.90200132 -2.7121 98.69777155 -6.359375 104.22265625 C-10.54185157 110.62779086 -13.82106891 117.41094662 -17.16503906 124.27679443 C-45.05233602 181.42096588 -45.05233602 181.42096588 -68 196 C-71.86004222 196.49214056 -72.90903994 196.05390226 -76.375 194 C-79 191 -79 191 -78.94921875 187.23828125 C-78.22115671 182.82251439 -76.16419802 179.66190657 -73.4375 176.1875 C-72.6028447 175.07683786 -71.76821001 173.96616023 -70.93359375 172.85546875 C-69.33017109 170.74504396 -67.72181099 168.6389919 -66.10400391 166.53955078 C-61.07775711 159.86077328 -57.18505412 152.98957384 -53.5 145.5 C-49.80678202 137.99383378 -45.91228789 131.1306423 -40.83886719 124.46118164 C-36.76365694 119.00682761 -33.4257064 113.41196872 -31.125 107 C-29.27686364 102.08945587 -26.47891654 98.6572024 -23.13671875 94.66015625 C-16.17901837 85.99801008 -11.56274346 76.34428414 -7.32055664 66.15478516 C-5.1822128 61.14022176 -2.74934967 56.97794479 0.68261719 52.73291016 C2.21236766 50.83618002 2.21236766 50.83618002 3.625 47.6875 C5.0731278 44.85706839 6.32911378 43.65779145 9 42 C8.70684151 37.43842805 8.70684151 37.43842805 6.86328125 33.37890625 C4.24110839 31.43838839 1.66713483 30.99273516 -1.5 30.25 C-12.68662113 27.21692643 -22.72131862 20.59835173 -30 11.5 C-31.39569216 8.01076959 -31.59819662 5.72211231 -31 2 C-22.63212988 -7.41385389 -9.99402373 -6.39874325 0 0 Z " fill="#000000" transform="translate(1248,61)"/>
<path d="M0 0 C3.51731348 3.51731348 4.845425 6.36150498 5.3125 11.3125 C4.77815385 17.61778461 0.7789485 21.73178809 -3.609375 25.99609375 C-6.78487316 28.65790838 -10.12974732 30.99588258 -13.5625 33.3125 C-14.19969971 33.74530273 -14.83689941 34.17810547 -15.4934082 34.62402344 C-21.34325111 38.46887681 -26.26719531 40.28295122 -33.375 40.125 C-34.43460938 40.10695312 -35.49421875 40.08890625 -36.5859375 40.0703125 C-37.78089844 40.03550781 -37.78089844 40.03550781 -39 40 C-39.29003906 40.76957031 -39.58007812 41.53914063 -39.87890625 42.33203125 C-41.69881038 46.66302261 -44.10949484 49.40632989 -48 52 C-48 52.66 -48 53.32 -48 54 C-47.443125 54.07476562 -46.88625 54.14953125 -46.3125 54.2265625 C-38.39646766 55.59047348 -33.77683731 59.22316269 -28.1875 64.8125 C-21.91237877 73.95624808 -21.97308055 83.96039274 -23.5390625 94.6953125 C-25.63382999 105.35330535 -28.9891186 113.69270257 -36 122 C-36.47824219 122.59683594 -36.95648437 123.19367188 -37.44921875 123.80859375 C-41.48776488 128.37611822 -46.23924002 130.82174282 -51.67602539 133.37524414 C-55.38478573 135.13135466 -58.65629158 137.04183717 -61.9375 139.5 C-70.26110651 145.57101333 -80.51222469 151.17193074 -91 151 C-93.23828125 149.99609375 -93.23828125 149.99609375 -95 149 C-95.75392111 143.09428462 -94.29292414 140.02672829 -90.8203125 135.25390625 C-83.25680435 125.88878993 -73.72454951 118.78253392 -63.4375 112.625 C-52.8281878 105.97507088 -40.52848313 94.28468409 -37.5625 81.625 C-38.03045086 77.7476929 -38.28930411 77.20150141 -41 74.6875 C-45.94488833 71.10099009 -50.36636854 68.80303051 -56.5625 69.0625 C-61.15289373 69.21108174 -63.52192293 68.14683163 -67 65 C-69.94312983 60.286876 -70.29027578 57.05411099 -69.8125 51.5625 C-69.71582031 50.30566406 -69.61914062 49.04882812 -69.51953125 47.75390625 C-68.23283943 38.45683229 -65.02411382 32.93781894 -57.6875 27.1875 C-55.28523945 26.12603604 -53.08559899 25.46611792 -50.55859375 24.7890625 C-44.43855562 22.97270383 -38.99451358 20.17889015 -33.375 17.1875 C-32.39015625 16.67896484 -31.4053125 16.17042969 -30.390625 15.64648438 C-24.49668965 12.54627438 -19.21187385 9.13427742 -14 5 C-5.39823009 -1.22687047 -5.39823009 -1.22687047 0 0 Z " fill="#000000" transform="translate(1104,66)"/>
<path d="M0 0 C10.39587438 2.95744702 17.1285038 15.83144054 22.265625 24.64453125 C24.87158574 29.32606607 27.42364499 34.0362015 29.89208984 38.79174805 C33.13447484 44.94624407 36.87487534 50.26180967 41.265625 55.64453125 C43.42667194 58.43909412 45.03133222 61.06053207 46.515625 64.26953125 C48.3088585 67.96942568 50.29942999 71.17055833 52.765625 74.45703125 C59.05505949 83.2045635 63.2537994 94.00549142 62.0078125 104.8984375 C61.37033556 108.0452555 60.37195443 110.48700618 58.578125 113.14453125 C55.2481908 115.30448857 53.16628688 115.18255358 49.265625 114.64453125 C37.54517308 109.03909773 29.74424241 95.31773843 25.48388672 83.47070312 C23.55056387 77.53609479 21.8788723 71.52261233 20.578125 65.41796875 C20.00862938 62.94778152 19.4923574 60.86151751 18.265625 58.64453125 C15.11481216 57.1858216 13.61174162 56.83828135 10.265625 56.64453125 C1.51046211 56.13616695 -5.61092301 55.04109654 -13.734375 51.64453125 C-14.724375 51.31453125 -15.714375 50.98453125 -16.734375 50.64453125 C-24.26291931 61.9930306 -24.26291931 61.9930306 -29.984375 74.26953125 C-32.27871566 80.6981186 -36.62620399 85.54729464 -42.359375 89.20703125 C-45.734375 90.64453125 -45.734375 90.64453125 -48.484375 90.64453125 C-51.39578694 89.35057039 -52.32960043 88.52801589 -53.734375 85.64453125 C-55.00633207 76.42284247 -50.41943576 69.75850132 -45.015625 62.61328125 C-40.62999915 56.63766559 -36.89556159 50.395307 -33.234375 43.95703125 C-32.58073975 42.8187085 -31.92710449 41.68038574 -31.25366211 40.50756836 C-27.73332298 34.32911238 -24.37510221 28.11655607 -21.296875 21.70703125 C-10.61135013 -0.53056751 -10.61135013 -0.53056751 0 0 Z M-2.734375 13.64453125 C-3.07210937 14.72992188 -3.40984375 15.8153125 -3.7578125 16.93359375 C-4.20830251 18.37891586 -4.65882507 19.82422782 -5.109375 21.26953125 C-5.33109375 21.98238281 -5.5528125 22.69523437 -5.78125 23.4296875 C-7.05602424 27.51646373 -8.36517042 31.58810274 -9.734375 35.64453125 C-7.18441064 38.76115435 -4.59107143 39.66145177 -0.734375 40.64453125 C2.85484509 41.00345326 4.57010616 41.0838063 7.640625 39.14453125 C8.176875 38.64953125 8.713125 38.15453125 9.265625 37.64453125 C9.1088406 29.64852689 5.62685032 23.24506067 1.265625 16.64453125 C-0.81874435 14.79206957 -0.81874435 14.79206957 -2.734375 13.64453125 Z " fill="#000000" transform="translate(300.734375,142.35546875)"/>
<path d="M0 0 C8.09862264 5.29868561 12.79759924 12.43129986 14.8359375 21.85546875 C16.81014333 34.96488818 11.7619732 49.68788879 4.5234375 60.62109375 C-4.61997193 72.72764513 -14.62403523 81.02243198 -30.0234375 83.2734375 C-36.99717854 83.63788442 -42.50110644 81.95862814 -48.1640625 77.85546875 C-50.63732885 75.40829171 -52.44589418 72.87356705 -54.1640625 69.85546875 C-54.5146875 69.24960938 -54.8653125 68.64375 -55.2265625 68.01953125 C-61.9263669 53.84226659 -52.56349221 31.02091628 -47.6640625 17.29296875 C-43.08247393 6.50268538 -35.37625327 1.90354032 -25.1640625 -3.14453125 C-15.95465089 -6.74374298 -8.51395742 -4.60716719 0 0 Z M-25.1640625 27.29296875 C-28.47037874 31.64373499 -31.34357832 36.20751211 -34.1015625 40.91796875 C-34.49150391 41.56628662 -34.88144531 42.21460449 -35.28320312 42.88256836 C-37.95454082 47.62585938 -39.47879993 52.34688535 -39.1640625 57.85546875 C-36.70026499 61.67038103 -34.95426398 62.63365781 -30.6015625 63.85546875 C-23.88531938 64.28959853 -16.70564176 62.73402733 -11.2890625 58.73046875 C-10.5878125 57.78171875 -9.8865625 56.83296875 -9.1640625 55.85546875 C-8.68710938 55.23929688 -8.21015625 54.623125 -7.71875 53.98828125 C-2.61305474 46.98398574 2.45421119 37.95075337 2.0234375 29.04296875 C1.04596303 24.10078475 -1.43999975 20.20964716 -5.1640625 16.85546875 C-13.73889984 13.13431292 -19.99278794 21.22725903 -25.1640625 27.29296875 Z " fill="#000000" transform="translate(1187.1640625,84.14453125)"/>
<path d="M0 0 C4.06806985 0.9819479 5.79522903 1.80941479 8.625 4.875 C13.0493962 12.6558347 13.11889542 23.41013862 11.12109375 32.05566406 C10.29327828 34.90746232 9.3686741 37.71879971 8.4152832 40.53076172 C6.00635317 47.98254744 6.15580687 55.12810009 6.625 62.875 C10.2568178 63.21284352 12.12383564 63.19195663 15.25 61.21484375 C17.72753352 58.77398424 19.6549491 56.30122319 21.625 53.4375 C28.96368574 43.17705714 28.96368574 43.17705714 34.0625 42.25 C38.37732123 43.00698618 40.93332021 44.49816535 43.625 47.875 C46.30414076 52.68939581 47.24846238 57.36774895 46.625 62.875 C43.56600551 69.10153394 38.22576305 72.08603707 32.625 75.875 C31.67238281 76.52339844 30.71976563 77.17179687 29.73828125 77.83984375 C21.01232903 83.5962948 13.8866791 87.2667536 3.16015625 85.2109375 C-6.09684366 82.64938297 -14.17269967 79.40677254 -19.375 70.875 C-20.3850109 65.82417186 -20.32291741 61.41830768 -19.73828125 56.31640625 C-19.65756882 55.60959213 -19.57685638 54.90277802 -19.49369812 54.17454529 C-19.32066002 52.68232634 -19.14307828 51.19062794 -18.96118164 49.69946289 C-18.69217888 47.47617069 -18.44370799 45.25128176 -18.19726562 43.02539062 C-16.55649714 28.83760951 -14.29100991 14.07620994 -6.375 1.875 C-3.375 -0.125 -3.375 -0.125 0 0 Z " fill="#000000" transform="translate(869.375,81.125)"/>
<path d="M0 0 C4.02166589 3.64755743 5.41064575 6.82661066 5.96875 12.08984375 C6.19343469 18.91464109 5.31350387 23.73722182 1.3125 29.375 C-1.03610743 30.91062793 -2.56768573 30.84922214 -5.3125 30.4375 C-8.23508578 28.16845727 -8.99560321 25.88899955 -9.9375 22.375 C-10.89155266 18.81687845 -10.89155266 18.81687845 -12.3125 15.4375 C-15.29922907 16.10671293 -15.29922907 16.10671293 -16.39257812 17.94677734 C-18.9538574 23.20213323 -20.51892103 28.37229577 -21.8125 34.0625 C-22.23085717 35.83125471 -22.65144345 37.59948362 -23.07421875 39.3671875 C-23.27966309 40.22795898 -23.48510742 41.08873047 -23.69677734 41.97558594 C-24.55792618 45.41881547 -25.58765258 48.79321126 -26.625 52.1875 C-28.05938063 57.17843916 -29.1889944 61.27592188 -28.3125 66.4375 C-26.10023504 68.87099145 -24.48538432 69.32885854 -21.24609375 69.62890625 C-8.8871457 69.28277426 1.69805532 61.15424552 10.6875 53.4375 C16.7406851 48.41691707 16.7406851 48.41691707 20.5625 48.5 C22.6875 49.4375 22.6875 49.4375 23.6875 51.4375 C24.77756609 58.66308096 22.94882147 64.56051162 18.6875 70.4375 C15.95980172 72.97293761 12.94618366 74.65679854 9.6875 76.4375 C8.4000916 77.16498792 7.11371183 77.89429788 5.828125 78.625 C3.72286391 79.81896967 1.61487102 81.00557048 -0.50585938 82.171875 C-4.03779628 84.11593829 -7.359843 86.12534036 -10.625 88.5 C-15.28139531 91.43444606 -20.00053709 91.20642956 -25.3125 90.4375 C-29.47067216 89.42494139 -33.36192107 88.07540426 -37.3125 86.4375 C-38.50875 85.9425 -39.705 85.4475 -40.9375 84.9375 C-44.86260547 80.80581003 -44.88631246 75.95764343 -45.3125 70.4375 C-45.38339844 69.591875 -45.45429687 68.74625 -45.52734375 67.875 C-46.36653559 46.39168895 -40.11588258 22.33264165 -25.46875 6.41796875 C-18.5199778 0.03567255 -9.03628521 -4.26239868 0 0 Z " fill="#000000" transform="translate(812.3125,82.5625)"/>
<path d="M0 0 C2.96800221 5.93600441 0.63062961 13.81853294 -1.0625 19.875 C-1.28510498 20.6894458 -1.50770996 21.5038916 -1.73706055 22.34301758 C-5.19067427 34.61141217 -9.56248004 46.49604307 -15.1875 57.9375 C-15.50823486 58.59387451 -15.82896973 59.25024902 -16.15942383 59.92651367 C-18.00220727 63.53171143 -19.87421899 66.40260967 -23 69 C-25.5 69.5625 -25.5 69.5625 -28 69 C-30.70375652 66.3111539 -31.89634476 64.61888274 -32.53125 60.828125 C-32.4068309 46.58213819 -28.77560331 33.81728085 -24.15527344 20.41918945 C-22.07149715 14.35978735 -20.39834633 8.25575991 -19 2 C-6.07763506 -1.75576124 -6.07763506 -1.75576124 0 0 Z " fill="#000000" transform="translate(1012,100)"/>
<path d="M0 0 C3.50664784 0.71564242 4.8598303 1.91425472 6.96484375 4.77734375 C10.97861541 11.53362131 12.48072352 18.81816097 12.0625 26.625 C11.1875 29.5 11.1875 29.5 10.0625 31.625 C7.10456277 33.10396861 5.36029776 33.0605582 2.0625 32.625 C-4.79583963 28.61072346 -7.91350998 22.51616206 -9.875 15.0625 C-9.97005839 9.83428832 -8.20531827 6.32999699 -5.125 2.1875 C-2.9375 0.625 -2.9375 0.625 0 0 Z " fill="#000000" transform="translate(882.9375,25.375)"/>
<path d="M0 0 C4.66005955 4.55650267 6.10381717 8.10013192 6.3125 14.4375 C6.27354312 17.82118291 6.04622947 18.92240054 4.25 21.9375 C0.84113865 25.06228957 -0.91154111 25.88542538 -5.5625 26.375 C-9 26 -9 26 -10.6875 24.33203125 C-13.19400692 19.87850557 -12.57520246 14.94797812 -12 10 C-11.02448608 6.77576619 -9.84111345 3.8288641 -8 1 C-5.074084 -0.462958 -3.24382653 -0.44523109 0 0 Z " fill="#000000" transform="translate(139,170)"/>
</svg>
